<svg width="40" height="40" viewBox="0 0 40 40" fill="none" xmlns="http://www.w3.org/2000/svg">
<circle cx="20" cy="20" r="19.5" stroke="#3A86FF"/>
<path d="M12.1641 25V13.625H16.0625C17.349 13.625 18.3281 13.8828 19 14.3984C19.6719 14.9141 20.0078 15.6823 20.0078 16.7031C20.0078 17.224 19.8672 17.6927 19.5859 18.1094C19.3047 18.526 18.8932 18.849 18.3516 19.0781C18.9661 19.2448 19.4401 19.5599 19.7734 20.0234C20.112 20.4818 20.2812 21.0339 20.2812 21.6797C20.2812 22.7474 19.9375 23.5677 19.25 24.1406C18.5677 24.7135 17.5885 25 16.3125 25H12.1641ZM14.1406 19.8672V23.4219H16.3359C16.9557 23.4219 17.4401 23.2682 17.7891 22.9609C18.138 22.6536 18.3125 22.2266 18.3125 21.6797C18.3125 20.4974 17.7083 19.8932 16.5 19.8672H14.1406ZM14.1406 18.4141H16.0781C16.6927 18.4141 17.1719 18.276 17.5156 18C17.8646 17.7188 18.0391 17.3229 18.0391 16.8125C18.0391 16.25 17.8776 15.8438 17.5547 15.5938C17.237 15.3438 16.7396 15.2188 16.0625 15.2188H14.1406V18.4141ZM23.9453 17.4688C24.5651 16.75 25.349 16.3906 26.2969 16.3906C28.099 16.3906 29.013 17.4193 29.0391 19.4766V25H27.1406V19.5469C27.1406 18.9635 27.013 18.5521 26.7578 18.3125C26.5078 18.0677 26.138 17.9453 25.6484 17.9453C24.888 17.9453 24.3203 18.2839 23.9453 18.9609V25H22.0469V13H23.9453V17.4688Z" fill="#3A86FF"/>
</svg>
