<svg width="40" height="40" viewBox="0 0 40 40" fill="none" xmlns="http://www.w3.org/2000/svg">
<circle cx="20" cy="20" r="19.5" stroke="#3A86FF"/>
<path d="M13.6172 25V13.625H16.9766C17.9818 13.625 18.8724 13.849 19.6484 14.2969C20.4297 14.7448 21.0339 15.3802 21.4609 16.2031C21.888 17.026 22.1016 17.9688 22.1016 19.0312V19.6016C22.1016 20.6797 21.8854 21.6276 21.4531 22.4453C21.026 23.263 20.4141 23.8932 19.6172 24.3359C18.8255 24.7786 17.9167 25 16.8906 25H13.6172ZM15.5938 15.2188V23.4219H16.8828C17.9193 23.4219 18.7135 23.099 19.2656 22.4531C19.8229 21.8021 20.1068 20.8698 20.1172 19.6562V19.0234C20.1172 17.7891 19.849 16.8464 19.3125 16.1953C18.776 15.5443 17.9974 15.2188 16.9766 15.2188H15.5938ZM28.3125 18.2812C28.0625 18.2396 27.8047 18.2188 27.5391 18.2188C26.6693 18.2188 26.0833 18.5521 25.7812 19.2188V25H23.8828V16.5469H25.6953L25.7422 17.4922C26.2005 16.7578 26.8359 16.3906 27.6484 16.3906C27.9193 16.3906 28.1432 16.4271 28.3203 16.5L28.3125 18.2812Z" fill="#3A86FF"/>
</svg>
