<svg width="40" height="40" viewBox="0 0 40 40" fill="none" xmlns="http://www.w3.org/2000/svg">
<circle cx="20" cy="20" r="19.5" stroke="#3A86FF"/>
<path d="M18.8047 20.1797H14.2266V25H12.25V13.625H19.4766V15.2188H14.2266V18.6016H18.8047V20.1797ZM28.2812 20.8594C28.2812 22.1719 27.987 23.2161 27.3984 23.9922C26.8151 24.7682 26.0104 25.1562 24.9844 25.1562C23.9948 25.1562 23.224 24.7995 22.6719 24.0859L22.5781 25H20.8594V13H22.7578V17.3594C23.3047 16.7135 24.0417 16.3906 24.9688 16.3906C26 16.3906 26.8099 16.7734 27.3984 17.5391C27.987 18.3047 28.2812 19.375 28.2812 20.75V20.8594ZM26.3828 20.6953C26.3828 19.7786 26.2214 19.0911 25.8984 18.6328C25.5755 18.1745 25.1068 17.9453 24.4922 17.9453C23.6693 17.9453 23.0911 18.3047 22.7578 19.0234V22.5078C23.0964 23.2422 23.6797 23.6094 24.5078 23.6094C25.1016 23.6094 25.5599 23.388 25.8828 22.9453C26.2057 22.5026 26.3724 21.8333 26.3828 20.9375V20.6953Z" fill="#3A86FF"/>
</svg>
