<svg width="40" height="40" viewBox="0 0 40 40" fill="none" xmlns="http://www.w3.org/2000/svg">
<circle cx="20" cy="20" r="19.5" stroke="#3A86FF"/>
<path d="M16.4453 25H14.4766V13.625H16.4453V25ZM18.3594 20.7109C18.3594 19.3984 18.6667 18.3516 19.2812 17.5703C19.901 16.7839 20.7214 16.3906 21.7422 16.3906C22.7057 16.3906 23.4635 16.7266 24.0156 17.3984L24.1016 16.5469H25.8125V24.7422C25.8125 25.8516 25.4661 26.7266 24.7734 27.3672C24.0859 28.0078 23.1562 28.3281 21.9844 28.3281C21.3646 28.3281 20.7578 28.1979 20.1641 27.9375C19.5755 27.6823 19.1276 27.3464 18.8203 26.9297L19.7188 25.7891C20.3021 26.4818 21.0208 26.8281 21.875 26.8281C22.5052 26.8281 23.0026 26.6562 23.3672 26.3125C23.7318 25.974 23.9141 25.474 23.9141 24.8125V24.2422C23.3672 24.8516 22.638 25.1562 21.7266 25.1562C20.737 25.1562 19.9271 24.763 19.2969 23.9766C18.6719 23.1901 18.3594 22.1016 18.3594 20.7109ZM20.25 20.875C20.25 21.724 20.4219 22.3932 20.7656 22.8828C21.1146 23.3672 21.5964 23.6094 22.2109 23.6094C22.9766 23.6094 23.5443 23.2812 23.9141 22.625V18.9062C23.5547 18.2656 22.9922 17.9453 22.2266 17.9453C21.6016 17.9453 21.1146 18.1927 20.7656 18.6875C20.4219 19.1823 20.25 19.9115 20.25 20.875Z" fill="#3A86FF"/>
</svg>
