<svg width="40" height="40" viewBox="0 0 40 40" fill="none" xmlns="http://www.w3.org/2000/svg">
<circle cx="20" cy="20" r="19.5" stroke="#3A86FF"/>
<path d="M12.1953 13.625L15.4766 22.3438L18.75 13.625H21.3047V25H19.3359V21.25L19.5312 16.2344L16.1719 25H14.7578L11.4062 16.2422L11.6016 21.25V25H9.63281V13.625H12.1953ZM23.1094 20.7109C23.1094 19.4089 23.4115 18.3646 24.0156 17.5781C24.6198 16.7865 25.4297 16.3906 26.4453 16.3906C27.3411 16.3906 28.0651 16.7031 28.6172 17.3281V13H30.5156V25H28.7969L28.7031 24.125C28.1354 24.8125 27.3776 25.1562 26.4297 25.1562C25.4401 25.1562 24.638 24.7578 24.0234 23.9609C23.4141 23.1641 23.1094 22.0807 23.1094 20.7109ZM25.0078 20.875C25.0078 21.7344 25.1719 22.4062 25.5 22.8906C25.8333 23.3698 26.3047 23.6094 26.9141 23.6094C27.6901 23.6094 28.2578 23.263 28.6172 22.5703V18.9609C28.2682 18.2839 27.7057 17.9453 26.9297 17.9453C26.3151 17.9453 25.8411 18.1901 25.5078 18.6797C25.1745 19.1641 25.0078 19.8958 25.0078 20.875Z" fill="#3A86FF"/>
</svg>
