<svg width="24" height="24" viewBox="0 0 24 24" fill="none" xmlns="http://www.w3.org/2000/svg">
<path d="M12 1.875C17.583 1.875 22.125 6.417 22.125 12C22.125 17.583 17.583 22.125 12 22.125C6.417 22.125 1.875 17.583 1.875 12C1.875 6.417 6.417 1.875 12 1.875ZM12 4.125C7.658 4.125 4.125 7.658 4.125 12C4.125 16.342 7.658 19.875 12 19.875C16.342 19.875 19.875 16.342 19.875 12C19.875 7.658 16.342 4.125 12 4.125ZM17.7949 9.79492L11 16.5908L7.20508 12.7949L8.79492 11.2051L11 13.4092L16.2051 8.20508L17.7949 9.79492Z" fill="white"/>
</svg>
