<svg width="176" height="35" viewBox="0 0 176 35" fill="none" xmlns="http://www.w3.org/2000/svg">
<path d="M0 11.5568V17.9762C2.20367 17.9747 4.38601 18.4058 6.42215 19.2447C8.4583 20.0836 10.3083 21.314 11.8662 22.8654C13.4238 24.4163 14.6591 26.2575 15.5014 28.2839C16.3436 30.3103 16.7764 32.482 16.775 34.675H23.2192C23.2133 28.5462 20.7653 22.6701 16.4123 18.336C12.0592 14.0019 6.15674 11.5638 0 11.5568H0Z" fill="white"/>
<path d="M32.2272 0H22.0147C27.181 3.25912 31.5586 7.61619 34.8333 12.7586V2.59241C34.8328 1.90469 34.5581 1.24531 34.0694 0.759189C33.5807 0.273069 32.9181 -1.70172e-07 32.2272 0V0Z" fill="white"/>
<path d="M6.41667 0H0V5.77977C7.69611 5.78775 15.0747 8.83459 20.5168 14.2517C25.9588 19.6689 29.0198 27.0139 29.0281 34.675H34.8333V28.2875C33.5208 21.2672 30.1034 14.8072 25.031 9.75782C19.9586 4.70848 13.469 1.30658 6.41667 0V0Z" fill="white"/>
<path d="M50.6284 3.81699H46.5383V24.3391H50.6284V3.81699Z" fill="white"/>
<path d="M65.6672 12.7084C64.9863 12.0922 64.1893 11.6168 63.3224 11.3095C61.4602 10.6586 59.4307 10.6586 57.5685 11.3095C56.7012 11.6165 55.9039 12.092 55.2227 12.7084C54.5548 13.3214 54.0211 14.0651 53.6552 14.8929C53.2771 15.796 53.0824 16.7647 53.0824 17.7431C53.0824 18.7215 53.2771 19.6902 53.6552 20.5933C54.0198 21.4235 54.5535 22.1692 55.2227 22.7833C55.9027 23.4001 56.6996 23.8754 57.5667 24.1813C59.4287 24.8334 61.4585 24.8334 63.3206 24.1813C64.1879 23.8754 64.9851 23.4001 65.6654 22.7833C66.3343 22.169 66.8681 21.4233 67.2329 20.5933C67.6111 19.6902 67.8058 18.7215 67.8058 17.7431C67.8058 16.7647 67.6111 15.796 67.2329 14.8929C66.8674 14.0654 66.3344 13.3217 65.6672 12.7084ZM62.8586 20.1599C62.1962 20.7538 61.3364 21.0824 60.445 21.0824C59.5536 21.0824 58.6937 20.7538 58.0314 20.1599C57.4747 19.4758 57.171 18.6221 57.171 17.7417C57.171 16.8614 57.4747 16.0077 58.0314 15.3236C58.6937 14.7297 59.5536 14.401 60.445 14.401C61.3364 14.401 62.1962 14.7297 62.8586 15.3236C63.4153 16.0077 63.719 16.8614 63.719 17.7417C63.719 18.6221 63.4153 19.4758 62.8586 20.1599V20.1599Z" fill="white"/>
<path d="M80.3513 12.8845H80.3C80.1108 12.6202 79.8912 12.3788 79.6455 12.1654C79.3479 11.9034 79.0184 11.6796 78.6647 11.4993C77.7707 11.0427 76.7783 10.81 75.7735 10.8213C74.893 10.806 74.0222 11.0066 73.238 11.4053C72.5073 11.782 71.862 12.3041 71.3423 12.9392C70.8124 13.5939 70.4059 14.3386 70.1424 15.1375C69.8623 15.9604 69.7195 16.8235 69.7198 17.6925C69.7095 18.6252 69.8666 19.5522 70.1837 20.43C70.471 21.231 70.9188 21.9655 71.5 22.5889C72.079 23.199 72.7818 23.6796 73.5616 23.9988C74.4095 24.3428 75.3182 24.5134 76.2337 24.5006C76.9109 24.489 77.5804 24.3558 78.21 24.1073C78.9161 23.8407 79.5278 23.3733 79.9691 22.7632H80.0241V24.0407C80.0394 24.4668 79.9689 24.8917 79.8166 25.2902C79.6644 25.6888 79.4335 26.0529 79.1377 26.3612C78.7623 26.6918 78.3234 26.9432 77.8475 27.1001C77.3717 27.2569 76.8688 27.316 76.3693 27.2737C75.5774 27.2825 74.7925 27.1252 74.0658 26.812C73.3426 26.4903 72.6679 26.0702 72.061 25.5637L69.7978 28.9262C70.7229 29.668 71.8042 30.1923 72.9612 30.4602C74.1061 30.7222 75.2771 30.8542 76.4518 30.8534C79.0332 30.8534 80.9554 30.2065 82.2186 28.9126C83.4818 27.6186 84.1136 25.7231 84.1143 23.2259V11.1471H80.3559L80.3513 12.8845ZM80.1057 18.897C79.9443 19.2832 79.7079 19.634 79.4099 19.929C79.1066 20.2299 78.751 20.4735 78.3603 20.6481C77.9547 20.8274 77.5158 20.92 77.072 20.92C76.6281 20.92 76.1892 20.8274 75.7836 20.6481C75.3981 20.471 75.0472 20.2276 74.7468 19.929C74.4476 19.6315 74.2102 19.2781 74.0483 18.8892C73.8863 18.5003 73.803 18.0834 73.803 17.6624C73.803 17.2413 73.8863 16.8244 74.0483 16.4355C74.2102 16.0466 74.4476 15.6932 74.7468 15.3957C75.0474 15.0971 75.3983 14.8534 75.7836 14.6757C76.1894 14.497 76.6282 14.4047 77.072 14.4047C77.5157 14.4047 77.9545 14.497 78.3603 14.6757C78.7509 14.8509 79.1064 15.0948 79.4099 15.3957C79.8599 15.8459 80.166 16.4186 80.2898 17.0416C80.4136 17.6646 80.3496 18.3101 80.1057 18.897V18.897Z" fill="white"/>
<path d="M99.4803 12.7084C98.7994 12.0922 98.0024 11.6168 97.1355 11.3095C95.2733 10.6586 93.2438 10.6586 91.3816 11.3095C90.5143 11.6165 89.7169 12.092 89.0358 12.7084C88.3678 13.3214 87.8342 14.0651 87.4683 14.8929C87.0902 15.796 86.8954 16.7647 86.8954 17.7431C86.8954 18.7215 87.0902 19.6902 87.4683 20.5933C87.8328 21.4235 88.3666 22.1692 89.0358 22.7833C89.7163 23.4003 90.5138 23.8756 91.3816 24.1813C93.2436 24.8334 95.2735 24.8334 97.1355 24.1813C98.0028 23.8754 98.8001 23.4001 99.4803 22.7833C100.15 22.1692 100.683 21.4235 101.048 20.5933C101.426 19.6902 101.621 18.7215 101.621 17.7431C101.621 16.7647 101.426 15.796 101.048 14.8929C100.682 14.0651 100.148 13.3214 99.4803 12.7084V12.7084ZM96.6717 20.1599C96.0093 20.7538 95.1495 21.0824 94.2581 21.0824C93.3667 21.0824 92.5068 20.7538 91.8445 20.1599C91.2878 19.4758 90.984 18.6221 90.984 17.7417C90.984 16.8614 91.2878 16.0077 91.8445 15.3236C92.5068 14.7297 93.3667 14.401 94.2581 14.401C95.1495 14.401 96.0093 14.7297 96.6717 15.3236C97.2283 16.0077 97.5321 16.8614 97.5321 17.7417C97.5321 18.6221 97.2283 19.4758 96.6717 20.1599Z" fill="white"/>
<path d="M107.047 11.2383H104.853V24.3391H107.047V11.2383Z" fill="white"/>
<path d="M105.95 4.52052C105.737 4.5165 105.526 4.55671 105.33 4.63857C105.134 4.72043 104.957 4.84215 104.811 4.99594C104.588 5.21978 104.436 5.50434 104.375 5.81374C104.315 6.12314 104.347 6.44355 104.469 6.73458C104.591 7.02561 104.796 7.27423 105.06 7.44912C105.323 7.62401 105.633 7.71733 105.95 7.71733C106.266 7.71733 106.576 7.62401 106.84 7.44912C107.103 7.27423 107.309 7.02561 107.431 6.73458C107.552 6.44355 107.585 6.12314 107.524 5.81374C107.463 5.50434 107.312 5.21978 107.089 4.99594C106.943 4.84208 106.766 4.72031 106.57 4.63844C106.374 4.55657 106.163 4.51641 105.95 4.52052V4.52052Z" fill="white"/>
<path d="M123.272 12.8663C122.655 12.2391 121.913 11.7477 121.094 11.4236C120.194 11.0706 119.234 10.8949 118.267 10.9062C117.357 10.8958 116.456 11.0973 115.638 11.4948C114.831 11.8939 114.118 12.4561 113.542 13.1455H113.483V11.2384H111.293V30.7221H113.483V22.0168H113.539C114.005 22.8152 114.684 23.4696 115.5 23.9075C116.448 24.4358 117.521 24.7017 118.607 24.6777C119.496 24.6832 120.377 24.5068 121.194 24.1594C121.984 23.8259 122.697 23.3353 123.289 22.7176C123.89 22.0863 124.363 21.3451 124.681 20.5349C125.356 18.7673 125.356 16.8147 124.681 15.0471C124.36 14.235 123.882 13.4939 123.272 12.8663V12.8663ZM122.499 19.71C122.294 20.2804 121.974 20.803 121.559 21.2455C121.144 21.6879 120.641 22.0408 120.083 22.2823C118.85 22.7853 117.467 22.7853 116.233 22.2823C115.675 22.0408 115.172 21.6876 114.756 21.2447C114.34 20.8017 114.02 20.2784 113.815 19.7073C113.385 18.4657 113.385 17.1163 113.815 15.8748C114.02 15.3036 114.34 14.7803 114.756 14.3373C115.172 13.8944 115.675 13.5412 116.233 13.2997C117.467 12.7968 118.85 12.7968 120.083 13.2997C120.642 13.5412 121.145 13.8944 121.561 14.3373C121.977 14.7803 122.297 15.3036 122.502 15.8748C122.932 17.1163 122.932 18.4657 122.502 19.7073L122.499 19.71Z" fill="white"/>
<path d="M136.237 17.7937C135.82 17.4835 135.356 17.2425 134.862 17.0802C134.319 16.898 133.765 16.7529 133.203 16.6458C132.781 16.5741 132.363 16.4809 131.951 16.3666C131.584 16.2673 131.227 16.136 130.883 15.9742C130.607 15.8498 130.358 15.6738 130.149 15.4559C129.972 15.261 129.876 15.0055 129.883 14.7423C129.878 14.4584 129.962 14.1799 130.122 13.9448C130.279 13.7126 130.485 13.5168 130.726 13.3709C130.983 13.216 131.263 13.1027 131.556 13.0351C131.856 12.9612 132.164 12.9235 132.473 12.9228C133.061 12.9046 133.642 13.0554 134.146 13.3572C134.601 13.6422 134.982 14.0306 135.257 14.4905L137.085 13.2869C136.68 12.4914 136.022 11.8514 135.214 11.4665C134.4 11.0899 133.511 10.8989 132.613 10.9071C132.004 10.9057 131.399 10.9905 130.814 11.159C130.253 11.3181 129.721 11.5645 129.238 11.889C128.776 12.1996 128.391 12.6112 128.113 13.0926C127.826 13.6051 127.68 14.1846 127.692 14.7715C127.669 15.3461 127.8 15.9165 128.071 16.4241C128.319 16.8486 128.664 17.2084 129.08 17.4735C129.538 17.7611 130.035 17.9826 130.555 18.1314C131.118 18.2993 131.709 18.4486 132.327 18.5794C132.684 18.6542 133.031 18.7382 133.368 18.8313C133.684 18.9156 133.987 19.0428 134.268 19.209C134.516 19.3554 134.731 19.5508 134.9 19.783C135.069 20.0402 135.153 20.3437 135.14 20.6508C135.15 20.9734 135.061 21.2915 134.887 21.5633C134.712 21.8209 134.481 22.0361 134.212 22.1929C133.92 22.3659 133.602 22.4893 133.27 22.5579C132.932 22.6316 132.588 22.6693 132.243 22.6701C131.56 22.6965 130.882 22.5314 130.289 22.1938C129.742 21.8478 129.262 21.4085 128.869 20.8962L127.127 22.2404C127.666 23.0738 128.432 23.7382 129.334 24.1566C130.26 24.5222 131.249 24.6985 132.245 24.6749C132.893 24.6754 133.539 24.6004 134.17 24.4513C134.77 24.3133 135.341 24.0718 135.857 23.7378C136.351 23.4119 136.759 22.974 137.049 22.4603C137.364 21.8772 137.519 21.2221 137.5 20.5604C137.518 19.9916 137.402 19.4265 137.163 18.9097C136.945 18.4717 136.628 18.0897 136.237 17.7937V17.7937Z" fill="white"/>
<path d="M152.04 21.232V11.2383H149.847V17.6258C149.854 18.3145 149.773 19.0012 149.607 19.6698C149.467 20.243 149.218 20.7843 148.874 21.2649C148.547 21.7117 148.112 22.0682 147.608 22.3006C147.029 22.5566 146.4 22.6813 145.767 22.6656C145.338 22.7001 144.907 22.6316 144.511 22.466C144.115 22.3004 143.764 22.0424 143.489 21.7138C142.962 20.9507 142.704 20.0351 142.755 19.1105V11.2383H140.562V19.3286C140.555 20.0619 140.654 20.7924 140.857 21.4976C141.033 22.1227 141.346 22.7014 141.773 23.1921C142.201 23.6719 142.735 24.0466 143.332 24.2871C144.044 24.5637 144.804 24.697 145.568 24.6795C146.082 24.6836 146.593 24.6126 147.086 24.4687C147.531 24.3396 147.957 24.1515 148.351 23.9093C148.71 23.6893 149.037 23.421 149.321 23.1118C149.577 22.8367 149.791 22.5252 149.955 22.1874H150.011C150.011 22.5616 150.02 22.9266 150.039 23.2824C150.058 23.6383 150.067 23.993 150.067 24.3464H152.148C152.148 23.9163 152.129 23.4403 152.091 22.9183C152.054 22.3964 152.036 21.8343 152.04 21.232Z" fill="white"/>
<path d="M175.747 14.1082C175.601 13.4743 175.312 12.8815 174.903 12.3744C174.49 11.8837 173.957 11.5067 173.356 11.2794C172.6 11.0075 171.798 10.8794 170.994 10.9016C170.121 10.8637 169.257 11.0933 168.519 11.5596C167.835 12.048 167.261 12.6726 166.832 13.3937C166.72 13.1692 166.575 12.9125 166.396 12.6235C166.197 12.3115 165.945 12.0366 165.651 11.8114C165.29 11.538 164.887 11.3224 164.459 11.1727C163.884 10.9801 163.279 10.89 162.673 10.9062C162.159 10.902 161.647 10.973 161.155 11.117C160.709 11.246 160.284 11.4342 159.889 11.6764C159.53 11.8966 159.204 12.165 158.919 12.4739C158.663 12.7489 158.45 13.0605 158.286 13.3982H158.23C158.23 13.0241 158.22 12.6609 158.202 12.3032C158.184 11.9455 158.174 11.5942 158.174 11.2393H156.093C156.093 11.6694 156.111 12.1454 156.149 12.6673C156.186 13.1893 156.205 13.7492 156.205 14.3472V24.34H158.4V17.958C158.393 17.2691 158.473 16.582 158.639 15.9131C158.779 15.3397 159.028 14.7983 159.373 14.318C159.699 13.8711 160.134 13.5146 160.638 13.2823C161.217 13.0261 161.846 12.9015 162.48 12.9174C162.856 12.8854 163.233 12.953 163.574 13.1133C163.914 13.2736 164.206 13.5208 164.42 13.8299C164.891 14.7899 165.095 15.858 165.011 16.9232V24.3419H167.2V16.7809C167.194 16.2421 167.284 15.7065 167.468 15.1995C167.63 14.7501 167.879 14.3366 168.201 13.9822C168.505 13.6505 168.873 13.3838 169.284 13.1984C169.699 13.0113 170.15 12.9157 170.605 12.9183C171.147 12.8987 171.686 13.0039 172.18 13.2258C172.57 13.4131 172.907 13.6922 173.164 14.0388C173.411 14.382 173.584 14.7726 173.671 15.1858C173.765 15.6182 173.812 16.0593 173.811 16.5016V24.34H176V16.3894C176.008 15.6216 175.923 14.8557 175.747 14.1082Z" fill="white"/>
</svg>
