<svg width="64" height="65" viewBox="0 0 64 65" fill="none" xmlns="http://www.w3.org/2000/svg">
<path d="M60.5867 46.9333C58.6667 38.1867 51.4133 31.7867 42.6667 30.5067C46.5067 27.3067 49.0667 22.6133 49.0667 17.0667C49.0667 7.68 41.3867 0 32 0C22.6133 0 14.9333 7.89334 14.9333 17.28C14.9333 22.6133 17.4933 27.52 21.3333 30.72C12.5867 31.7867 5.33334 38.4 3.41334 47.1467L1.92 53.9733C1.28 56.5333 1.92 59.0933 3.62667 61.2267C5.33334 63.36 7.68 64.4267 10.24 64.4267H53.9733C56.5333 64.4267 59.0933 63.1467 60.5867 61.2267C62.2933 59.0933 62.72 56.5333 62.2933 53.9733L60.5867 46.9333ZM36.2667 48.64L32 54.1867L27.7333 48.64L29.6533 34.56V34.3467C30.5067 34.3467 31.1467 34.3467 31.7867 34.3467C32.4267 34.3467 33.28 34.3467 33.92 34.3467V34.56L36.2667 48.64ZM19.2 17.28C19.2 10.24 24.96 4.48 32 4.48C39.04 4.48 44.8 10.24 44.8 17.28C44.8 24.32 39.04 30.08 32 30.08C24.96 30.08 19.2 24.32 19.2 17.28ZM57.1733 58.24C56.32 59.3067 55.04 59.9467 53.76 59.9467H10.24C8.96 59.9467 7.68 59.3067 6.82667 58.24C5.97334 57.1733 5.76 55.8933 5.97334 54.6133L7.46667 47.7867C9.17334 40.5333 15.36 35.2 22.8267 34.56C23.68 34.56 24.7467 34.3467 25.6 34.3467L23.4667 48.8533C23.4667 49.4933 23.4667 49.92 23.8933 50.3467L30.2933 58.88C30.72 59.52 31.36 59.7333 32 59.7333C32.64 59.7333 33.28 59.52 33.7067 58.88L40.1067 50.3467C40.5333 49.92 40.5333 49.28 40.5333 48.8533L38.4 34.3467C39.2533 34.3467 40.1067 34.56 41.1733 34.56C48.64 35.2 54.8267 40.5333 56.5333 47.7867L58.0267 54.6133C58.24 55.8933 58.0267 57.3867 57.1733 58.24Z" fill="#3A86FF"/>
<path d="M24.7467 18.1333C25.8133 18.1333 26.6667 17.28 26.6667 16.2133C26.6667 14.72 27.0933 13.2267 28.16 12.16C29.2267 11.0933 30.5067 10.4533 32 10.4533C33.0667 10.4533 33.92 9.6 33.7067 8.53333C33.7067 7.46666 32.8533 6.61333 31.7867 6.82666C29.2267 6.82666 27.0933 7.89333 25.3867 9.6C23.68 11.3067 22.8267 13.6533 22.8267 16.2133C22.8267 17.28 23.68 18.1333 24.7467 18.1333Z" fill="#3A86FF"/>
<path d="M61.8667 6.61344H59.7333V4.48011C59.7333 3.20011 58.88 2.34678 57.6 2.34678C56.32 2.34678 55.4667 3.20011 55.4667 4.48011V6.61344H53.3333C52.0533 6.61344 51.2 7.46678 51.2 8.74678C51.2 10.0268 52.0533 10.8801 53.3333 10.8801H55.4667V13.0134C55.4667 14.2934 56.32 15.1468 57.6 15.1468C58.88 15.1468 59.7333 14.2934 59.7333 13.0134V10.8801H61.8667C63.1467 10.8801 64 10.0268 64 8.74678C64 7.46678 63.1467 6.61344 61.8667 6.61344Z" fill="#3A86FF"/>
<path d="M4.26667 30.0801V32.2134C4.26667 33.4934 5.12 34.3468 6.4 34.3468C7.68 34.3468 8.53333 33.4934 8.53333 32.2134V30.0801H10.6667C11.9467 30.0801 12.8 29.2268 12.8 27.9468C12.8 26.6668 11.9467 25.8134 10.6667 25.8134H8.53333V23.6801C8.53333 22.4001 7.68 21.5468 6.4 21.5468C5.12 21.5468 4.26667 22.4001 4.26667 23.6801V25.8134H2.13333C0.853333 25.8134 0 26.6668 0 27.9468C0 29.2268 0.853333 30.0801 2.13333 30.0801H4.26667Z" fill="#3A86FF"/>
</svg>
