<svg width="48" height="48" viewBox="0 0 48 48" fill="none" xmlns="http://www.w3.org/2000/svg">
<path d="M36.64 22.4C36.64 18.88 33.76 16 30.24 16V8C30.24 3.68 26.72 0 22.24 0H14.4C9.92 0 6.4 3.52 6.4 8V16C2.88 16 0 18.88 0 22.4V41.6C0 45.12 2.88 48 6.4 48H30.4C31.04 48 31.68 47.84 32.16 47.68C33.12 47.84 34.08 48 35.2 48C42.24 48 48 42.24 48 35.2C48 28.64 43.04 23.2 36.64 22.4ZM9.44 8C9.44 5.28 11.68 3.2 14.24 3.2H22.24C24.96 3.2 27.04 5.44 27.04 8V16H23.68V9.6C23.68 7.84 22.24 6.4 20.48 6.4H15.68C14.24 6.4 12.8 7.84 12.8 9.6V16H9.44V8ZM15.84 16V9.44H20.64V15.84H15.84V16ZM6.4 44.8C4.64 44.8 3.2 43.36 3.2 41.6V22.4C3.2 20.64 4.64 19.2 6.4 19.2H30.4C32.16 19.2 33.6 20.64 33.6 22.4C27.2 23.2 22.4 28.64 22.4 35.04C22.4 38.88 24.16 42.4 26.88 44.64H6.4V44.8ZM35.2 44.8C29.92 44.8 25.6 40.48 25.6 35.2C25.6 29.92 29.92 25.6 35.2 25.6C40.48 25.6 44.8 29.92 44.8 35.2C44.8 40.48 40.48 44.8 35.2 44.8Z" fill="#3A86FF"/>
<path d="M35.84 33.6H34.56C34.08 33.6 33.6 33.12 33.6 32.64C33.6 32.16 34.08 31.68 34.56 31.68H35.84C36.32 31.68 36.64 32 36.8 32.32C37.12 33.12 37.92 33.6 38.88 33.28C39.68 32.96 40.16 32.16 39.84 31.2C39.36 29.76 38.24 28.8 36.8 28.48C36.8 28.48 36.8 28.48 36.8 28.32C36.8 28.16 36.8 28.16 36.64 28C36.64 27.84 36.64 27.84 36.48 27.68C36.48 27.52 36.32 27.52 36.32 27.36C35.68 26.72 34.72 26.72 34.08 27.36C33.92 27.68 33.76 28 33.6 28.32C31.68 28.8 30.4 30.4 30.4 32.32C30.4 34.56 32.32 36.48 34.56 36.48H35.84C36.32 36.48 36.8 36.96 36.8 37.44C36.8 37.92 36.32 38.4 35.84 38.4H34.56C34.08 38.4 33.76 38.08 33.6 37.76C33.28 36.96 32.48 36.48 31.68 36.64C30.88 36.96 30.4 37.76 30.56 38.56C31.04 40 32.16 41.12 33.6 41.44C33.6 41.6 33.6 41.76 33.76 41.92C33.76 42.08 33.92 42.24 34.08 42.4L34.24 42.56C34.4 42.56 34.4 42.72 34.56 42.72C34.72 42.72 34.72 42.72 34.88 42.88C35.04 42.88 35.04 42.88 35.2 42.88C35.68 42.88 36 42.72 36.32 42.4C36.48 42.24 36.64 42.08 36.64 41.92C36.64 41.76 36.64 41.6 36.8 41.6C38.72 41.12 40 39.52 40 37.6C40 35.36 38.08 33.6 35.84 33.6Z" fill="#3A86FF"/>
<path d="M14.4 22.4H11.2C8.48 22.4 6.4 24.48 6.4 27.2V30.4C6.4 31.36 7.04 32 8 32C8.96 32 9.6 31.36 9.6 30.4V27.2C9.6 26.24 10.24 25.6 11.2 25.6H14.4C15.36 25.6 16 24.96 16 24C16 23.04 15.2 22.4 14.4 22.4Z" fill="#3A86FF"/>
</svg>
