<svg width="64" height="65" viewBox="0 0 64 65" fill="none" xmlns="http://www.w3.org/2000/svg">
<path d="M38.4 36.4801H25.6C24.32 36.4801 23.4667 37.3334 23.4667 38.6134V62.0801C23.4667 63.3601 24.32 64.2134 25.6 64.2134H38.4C39.68 64.2134 40.5333 63.3601 40.5333 62.0801V38.6134C40.5333 37.3334 39.68 36.4801 38.4 36.4801ZM36.2667 59.9468H27.7333V40.7468H36.2667V59.9468Z" fill="#3A86FF"/>
<path d="M14.9333 45.0134H2.13333C0.853333 45.0134 0 45.8668 0 47.1468V62.0801C0 63.3601 0.853333 64.2134 2.13333 64.2134H14.9333C16.2133 64.2134 17.0667 63.3601 17.0667 62.0801V47.1468C17.0667 45.8668 16.2133 45.0134 14.9333 45.0134ZM12.8 59.9468H4.26667V49.2801H12.8V59.9468Z" fill="#3A86FF"/>
<path d="M61.8667 23.6801H49.0667C47.7867 23.6801 46.9333 24.5334 46.9333 25.8134V62.0801C46.9333 63.3601 47.7867 64.2134 49.0667 64.2134H61.8667C63.1467 64.2134 64 63.3601 64 62.0801V25.8134C64 24.5334 63.1467 23.6801 61.8667 23.6801ZM59.7333 59.9468H51.2V27.9468H59.7333V59.9468Z" fill="#3A86FF"/>
<path d="M64 2.13333C64 1.92 64 1.92 64 1.70667C64 1.49333 64 1.49333 63.7867 1.28C63.7867 1.06667 63.5733 1.06667 63.5733 0.853333C63.5733 0.64 63.36 0.64 63.36 0.426667C63.36 0.426667 63.36 0.426667 63.1467 0.213333H62.9333C62.72 0.213333 62.72 0 62.5067 0C62.2933 0 62.2933 0 62.08 0H49.0667C47.7867 0 46.9333 0.853333 46.9333 2.13333C46.9333 3.41333 47.7867 4.26667 49.0667 4.26667H57.3867C50.3467 12.3733 30.5067 31.36 2.13333 32.2133C0.853333 32.2133 0 33.28 0 34.3467C0 35.4133 1.06667 36.48 2.13333 36.48C31.36 35.6267 51.6267 17.0667 59.7333 8.32V15.1467C59.7333 16.4267 60.5867 17.28 61.8667 17.28C63.1467 17.28 64 16.4267 64 15.1467V2.13333C64 2.34667 64 2.34667 64 2.13333Z" fill="#3A86FF"/>
</svg>
