<svg width="45" height="48" viewBox="0 0 45 48" fill="none" xmlns="http://www.w3.org/2000/svg">
<path d="M9.6 8H14.4C15.36 8 16 7.36 16 6.4C16 5.44 15.36 4.8 14.4 4.8H9.6C8.64 4.8 8 5.44 8 6.4C8 7.36 8.64 8 9.6 8Z" fill="#3A86FF"/>
<path d="M19.2 8H20.8C21.76 8 22.4 7.36 22.4 6.4C22.4 5.44 21.76 4.8 20.8 4.8H19.2C18.24 4.8 17.6 5.44 17.6 6.4C17.6 7.36 18.24 8 19.2 8Z" fill="#3A86FF"/>
<path d="M8 20.8H16.96L16.48 21.28C15.84 21.92 15.84 22.88 16.48 23.52C16.8 23.84 17.28 24 17.6 24C17.92 24 18.4 23.84 18.72 23.52L21.92 20.32C22.08 20.16 22.24 20 22.24 19.84C22.4 19.52 22.4 19.04 22.24 18.56C22.08 18.4 22.08 18.24 21.92 18.08L18.72 14.88C18.08 14.24 17.12 14.24 16.48 14.88C15.84 15.52 15.84 16.48 16.48 17.12L16.96 17.6H8C7.04 17.6 6.4 18.24 6.4 19.2C6.4 20.16 7.04 20.8 8 20.8Z" fill="#3A86FF"/>
<path d="M32 22.4C30.88 22.4 29.76 22.56 28.8 22.88V4.8C28.8 2.08 26.72 0 24 0H4.8C2.08 0 0 2.08 0 4.8V43.2C0 45.92 2.08 48 4.8 48H24C25.12 48 26.08 47.68 26.88 46.88C28.48 47.52 30.08 48 32 48C39.04 48 44.8 42.24 44.8 35.2C44.8 28.16 39.04 22.4 32 22.4ZM3.2 4.8C3.2 3.84 3.84 3.2 4.8 3.2H24C24.96 3.2 25.6 3.84 25.6 4.8V24C25.6 24 25.6 24 25.6 24.16C24.16 24.96 23.04 26.08 22.08 27.2H11.84L12.32 26.72C12.96 26.08 12.96 25.12 12.32 24.48C11.68 23.84 10.72 23.84 10.08 24.48L6.88 27.68C6.72 27.84 6.56 28 6.56 28.16C6.4 28.48 6.4 28.96 6.56 29.44C6.72 29.6 6.72 29.76 6.88 29.92L10.08 33.12C10.4 33.44 10.72 33.6 11.2 33.6C11.68 33.6 12 33.44 12.32 33.12C12.96 32.48 12.96 31.52 12.32 30.88L11.84 30.4H20.16C19.52 31.84 19.2 33.44 19.2 35.2C19.2 36.96 19.52 38.56 20.16 40H4.8C3.84 40 3.2 39.36 3.2 38.4V4.8ZM4.8 44.8C3.84 44.8 3.2 44.16 3.2 43.2V42.88C3.68 43.04 4.16 43.2 4.8 43.2H22.08C22.56 43.84 23.04 44.32 23.68 44.8H4.8ZM32 44.8C26.72 44.8 22.4 40.48 22.4 35.2C22.4 29.92 26.72 25.6 32 25.6C37.28 25.6 41.6 29.92 41.6 35.2C41.6 40.48 37.28 44.8 32 44.8Z" fill="#3A86FF"/>
<path d="M32.64 33.6H31.36C30.88 33.6 30.4 33.12 30.4 32.64C30.4 32.16 30.88 31.68 31.36 31.68H32.64C33.12 31.68 33.44 32 33.6 32.32C33.92 33.12 34.72 33.6 35.68 33.28C36.48 32.96 36.96 32.16 36.64 31.2C36.16 29.76 35.04 28.8 33.6 28.48C33.6 28.16 33.44 27.84 33.12 27.52C32.8 27.2 32.16 27.04 31.68 27.04C31.52 27.04 31.52 27.04 31.36 27.2C31.2 27.2 31.2 27.36 31.04 27.36L30.88 27.52C30.72 27.84 30.56 28.16 30.4 28.48C28.48 28.96 27.2 30.56 27.2 32.48C27.2 34.72 29.12 36.64 31.36 36.64H32.64C33.12 36.64 33.6 37.12 33.6 37.6C33.6 38.08 33.12 38.56 32.64 38.56H31.36C30.88 38.56 30.56 38.24 30.4 37.92C30.08 37.12 29.28 36.64 28.48 36.8C27.68 37.12 27.2 37.92 27.36 38.72C27.84 40.16 28.96 41.28 30.4 41.6C30.4 41.76 30.4 41.92 30.56 42.08C30.56 42.24 30.72 42.4 30.88 42.56L31.04 42.72C31.2 42.72 31.2 42.88 31.36 42.88C31.52 42.88 31.52 42.88 31.68 43.04C31.84 43.04 31.84 43.04 32 43.04C32.48 43.04 32.8 42.88 33.12 42.56C33.28 42.4 33.44 42.24 33.44 42.08C33.44 41.92 33.44 41.76 33.6 41.76C35.52 41.28 36.8 39.68 36.8 37.76C36.8 35.52 34.88 33.6 32.64 33.6Z" fill="#3A86FF"/>
</svg>
