<svg width="64" height="64" viewBox="0 0 64 64" fill="none" xmlns="http://www.w3.org/2000/svg">
<path d="M32 34.1333C41.3867 34.1333 49.0667 26.4533 49.0667 17.0667C49.0667 7.68 41.3867 0 32 0C22.6133 0 14.9333 7.68 14.9333 17.0667C14.9333 26.4533 22.6133 34.1333 32 34.1333ZM32 4.26667C39.04 4.26667 44.8 10.0267 44.8 17.0667C44.8 24.1067 39.04 29.8667 32 29.8667C24.96 29.8667 19.2 24.1067 19.2 17.0667C19.2 10.0267 24.96 4.26667 32 4.26667Z" fill="#3A86FF"/>
<path d="M31.1467 19.1999H32.8533C33.4933 19.1999 34.1333 19.8399 34.1333 20.4799C34.1333 21.1199 33.4933 21.7599 32.8533 21.7599H31.1467C30.5067 21.7599 30.08 21.3332 29.8667 20.9066C29.44 19.8399 28.3733 19.1999 27.3067 19.4132C26.24 19.8399 25.6 20.9066 25.8133 21.9732C26.4533 23.8932 27.9467 25.3866 29.8667 25.8133C29.8667 26.0266 29.8667 26.2399 30.08 26.4532C30.2933 26.6666 30.2933 26.8799 30.5067 27.0933L30.72 27.3066C30.9333 27.3066 30.9333 27.5199 31.1467 27.5199C31.36 27.5199 31.36 27.5199 31.5733 27.7332C31.7867 27.7332 31.7867 27.7332 32 27.7332C32.2133 27.7332 32.2133 27.7332 32.4267 27.7332C32.64 27.7332 32.64 27.7332 32.8533 27.5199C33.0667 27.5199 33.0667 27.3066 33.28 27.3066L33.4933 27.0933C33.7067 26.8799 33.92 26.6666 33.92 26.4532C33.92 26.2399 33.92 26.0266 34.1333 26.0266C36.6933 25.3866 38.4 23.2532 38.4 20.6932C38.4 17.4932 35.84 14.9332 32.8533 14.9332H31.1467C30.5067 14.9332 29.8667 14.2932 29.8667 13.6532C29.8667 13.0132 30.5067 12.3732 31.1467 12.3732H32.8533C33.4933 12.3732 33.92 12.7999 34.1333 13.2266C34.56 14.2932 35.6267 14.9332 36.9067 14.5066C37.9733 14.0799 38.6133 13.0132 38.1867 11.7332C37.5467 9.81325 36.0533 8.53325 34.1333 8.10658C34.1333 7.67991 33.92 7.25325 33.4933 6.82658C32.64 5.97325 31.1467 5.97325 30.5067 6.82658C30.2933 7.25325 30.08 7.67991 29.8667 8.10658C27.3067 8.74658 25.6 10.8799 25.6 13.4399C25.6 16.6399 28.16 19.1999 31.1467 19.1999Z" fill="#3A86FF"/>
<path d="M61.2267 41.6C59.52 40.32 57.1733 40.1067 55.2533 40.96L38.4 48C38.4 47.5733 38.4 47.36 38.4 46.9333C38.4 43.3067 35.6267 40.5333 32 40.5333H22.6133C22.1867 40.5333 21.76 40.5333 21.5467 40.32C18.9867 38.8267 14.2933 36.2667 10.6667 36.2667C5.76 36.2667 1.06667 40.7467 0.64 41.1733C0.213333 41.6 0 42.0267 0 42.6667V61.8667C0 63.1467 0.853333 64 2.13333 64H32.8533C35.4133 64 38.1867 63.36 40.32 61.8667L62.9333 48.64C63.5733 48.2133 64 47.5733 64 46.72C64 44.8 62.9333 42.88 61.2267 41.6ZM38.1867 58.24C36.48 59.0933 34.7733 59.7333 32.8533 59.7333H4.26667V43.52C5.76 42.4533 8.32 40.5333 10.6667 40.5333C12.5867 40.5333 15.7867 41.8133 19.2 43.9467C20.2667 44.5867 21.3333 44.8 22.4 44.8H32C33.28 44.8 34.1333 45.6533 34.1333 46.9333C34.1333 48.2133 33.28 49.0667 32 49.0667H19.2C17.92 49.0667 17.0667 49.92 17.0667 51.2C17.0667 52.48 17.92 53.3333 19.2 53.3333H36.2667C36.48 53.3333 36.9067 53.3333 37.12 53.12L56.7467 45.0133C57.3867 44.8 58.24 44.8 58.6667 45.2267C58.88 45.44 59.0933 45.6533 59.3067 45.8667L38.1867 58.24Z" fill="#3A86FF"/>
</svg>
