<svg width="48" height="47" viewBox="0 0 48 47" fill="none" xmlns="http://www.w3.org/2000/svg">
<path d="M25.28 44.16L47.68 16.96C47.84 16.8 47.84 16.8 47.84 16.64C47.84 16.48 48 16.32 48 16.16C48 16.16 48 16.16 48 16C48 15.84 48 15.68 47.84 15.52V15.36C47.84 15.36 47.84 15.36 47.84 15.2L39.84 0.8C39.84 0.64 39.68 0.64 39.68 0.48C39.52 0.32 39.36 0.32 39.2 0.16C38.88 0 38.72 0 38.4 0H9.6C9.6 0 9.6 0 9.44 0C9.28 0 9.12 0 8.96 0.16C8.8 0.32 8.64 0.32 8.48 0.48C8.48 0.64 8.32 0.64 8.32 0.8L0.32 15.2C0.32 15.2 0.32 15.2 0.32 15.36V15.52C0 15.68 0 15.68 0 15.84C0 15.84 0 15.84 0 16C0 16.16 0 16.32 0.16 16.48C0.16 16.64 0.32 16.64 0.32 16.8L22.72 44C22.72 44 22.72 44 22.88 44C22.88 44 22.88 44.16 23.04 44.16L23.2 44.32C23.2 44.32 23.36 44.32 23.36 44.48H23.52C23.68 44.48 23.84 44.48 24 44.48C24.16 44.48 24.32 44.48 24.48 44.48H24.64C24.64 44.48 24.8 44.48 24.8 44.32C24.8 44.32 24.96 44.32 24.96 44.16C24.96 44.48 25.12 44.32 25.28 44.16C25.12 44.32 25.12 44.32 25.28 44.16C25.28 44.32 25.12 44.32 25.28 44.16ZM9.44 5.12L13.6 14.4H4.32L9.44 5.12ZM43.68 14.4H34.4L38.56 5.12L43.68 14.4ZM29.92 17.6L24 37.6L18.08 17.6H29.92ZM18.72 14.4L24 4.96L29.28 14.4H18.72ZM33.12 17.6H42.88L27.68 36.16L33.12 17.6ZM31.84 12.48L26.72 3.2H36L31.84 12.48ZM16.16 12.48L12 3.2H21.28L16.16 12.48ZM14.88 17.6L20.32 36.16L4.96 17.6H14.88Z" fill="#3A86FF"/>
<path d="M8 33.6H6.4V32C6.4 31.04 5.76 30.4 4.8 30.4C3.84 30.4 3.2 31.04 3.2 32V33.6H1.6C0.64 33.6 0 34.24 0 35.2C0 36.16 0.64 36.8 1.6 36.8H3.2V38.4C3.2 39.36 3.84 40 4.8 40C5.76 40 6.4 39.36 6.4 38.4V36.8H8C8.96 36.8 9.6 36.16 9.6 35.2C9.6 34.24 8.96 33.6 8 33.6Z" fill="#3A86FF"/>
<path d="M46.4 40H44.8V38.4C44.8 37.44 44.16 36.8 43.2 36.8C42.24 36.8 41.6 37.44 41.6 38.4V40H40C39.04 40 38.4 40.64 38.4 41.6C38.4 42.56 39.04 43.2 40 43.2H41.6V44.8C41.6 45.76 42.24 46.4 43.2 46.4C44.16 46.4 44.8 45.76 44.8 44.8V43.2H46.4C47.36 43.2 48 42.56 48 41.6C48 40.64 47.36 40 46.4 40Z" fill="#3A86FF"/>
</svg>
